<mxfile host="Electron" modified="2024-06-23T16:46:45.327Z" agent="Mozilla/5.0 (Macintosh; Intel Mac OS X 10_15_7) AppleWebKit/537.36 (KHTML, like Gecko) draw.io/24.6.1 Chrome/124.0.6367.207 Electron/30.0.6 Safari/537.36" etag="2r2phf9esRsv0aZotpwW" version="24.6.1" type="device">
  <diagram name="customerauthentication" id="wAtL0JLXeKaF_xJ_1XsA">
    <mxGraphModel dx="1493" dy="1030" grid="1" gridSize="10" guides="1" tooltips="1" connect="1" arrows="1" fold="1" page="1" pageScale="1" pageWidth="827" pageHeight="1169" math="0" shadow="0">
      <root>
        <mxCell id="0" />
        <mxCell id="1" parent="0" />
        <mxCell id="5dRny-T6z-p70ULrLOng-2" value="&lt;b&gt;&lt;font style=&quot;font-size: 16px;&quot;&gt;BFF-Ecommerce&lt;/font&gt;&lt;/b&gt;" style="sketch=0;points=[[0,0,0],[0.25,0,0],[0.5,0,0],[0.75,0,0],[1,0,0],[0,1,0],[0.25,1,0],[0.5,1,0],[0.75,1,0],[1,1,0],[0,0.25,0],[0,0.5,0],[0,0.75,0],[1,0.25,0],[1,0.5,0],[1,0.75,0]];outlineConnect=0;fontColor=#232F3E;fillColor=#ED7100;strokeColor=#ffffff;dashed=0;verticalLabelPosition=bottom;verticalAlign=top;align=center;html=1;fontSize=12;fontStyle=0;aspect=fixed;shape=mxgraph.aws4.resourceIcon;resIcon=mxgraph.aws4.ec2;" vertex="1" parent="1">
          <mxGeometry x="428" y="370" width="78" height="78" as="geometry" />
        </mxCell>
        <mxCell id="5dRny-T6z-p70ULrLOng-3" value="&lt;b&gt;&lt;font style=&quot;font-size: 16px;&quot;&gt;customerauthentication&lt;/font&gt;&lt;/b&gt;" style="sketch=0;points=[[0,0,0],[0.25,0,0],[0.5,0,0],[0.75,0,0],[1,0,0],[0,1,0],[0.25,1,0],[0.5,1,0],[0.75,1,0],[1,1,0],[0,0.25,0],[0,0.5,0],[0,0.75,0],[1,0.25,0],[1,0.5,0],[1,0.75,0]];outlineConnect=0;fontColor=#232F3E;fillColor=#ED7100;strokeColor=#ffffff;dashed=0;verticalLabelPosition=bottom;verticalAlign=top;align=center;html=1;fontSize=12;fontStyle=0;aspect=fixed;shape=mxgraph.aws4.resourceIcon;resIcon=mxgraph.aws4.ec2;" vertex="1" parent="1">
          <mxGeometry x="640" y="370" width="78" height="78" as="geometry" />
        </mxCell>
        <mxCell id="5dRny-T6z-p70ULrLOng-11" style="edgeStyle=orthogonalEdgeStyle;rounded=0;orthogonalLoop=1;jettySize=auto;html=1;" edge="1" parent="1" source="5dRny-T6z-p70ULrLOng-10" target="5dRny-T6z-p70ULrLOng-2">
          <mxGeometry relative="1" as="geometry" />
        </mxCell>
        <mxCell id="5dRny-T6z-p70ULrLOng-10" value="&lt;b&gt;&lt;font style=&quot;font-size: 16px;&quot;&gt;API-GATEWAY&lt;/font&gt;&lt;/b&gt;" style="sketch=0;points=[[0,0,0],[0.25,0,0],[0.5,0,0],[0.75,0,0],[1,0,0],[0,1,0],[0.25,1,0],[0.5,1,0],[0.75,1,0],[1,1,0],[0,0.25,0],[0,0.5,0],[0,0.75,0],[1,0.25,0],[1,0.5,0],[1,0.75,0]];outlineConnect=0;fontColor=#232F3E;fillColor=#E7157B;strokeColor=#ffffff;dashed=0;verticalLabelPosition=bottom;verticalAlign=top;align=center;html=1;fontSize=12;fontStyle=0;aspect=fixed;shape=mxgraph.aws4.resourceIcon;resIcon=mxgraph.aws4.api_gateway;" vertex="1" parent="1">
          <mxGeometry x="218" y="370" width="78" height="78" as="geometry" />
        </mxCell>
        <mxCell id="5dRny-T6z-p70ULrLOng-24" style="edgeStyle=orthogonalEdgeStyle;rounded=0;orthogonalLoop=1;jettySize=auto;html=1;" edge="1" parent="1" source="5dRny-T6z-p70ULrLOng-12" target="5dRny-T6z-p70ULrLOng-19">
          <mxGeometry relative="1" as="geometry" />
        </mxCell>
        <mxCell id="5dRny-T6z-p70ULrLOng-12" value="" style="verticalLabelPosition=bottom;aspect=fixed;html=1;shape=mxgraph.salesforce.web;" vertex="1" parent="1">
          <mxGeometry x="20" y="207.39999999999998" width="80" height="63.2" as="geometry" />
        </mxCell>
        <mxCell id="5dRny-T6z-p70ULrLOng-21" style="edgeStyle=orthogonalEdgeStyle;rounded=0;orthogonalLoop=1;jettySize=auto;html=1;exitX=0.5;exitY=1;exitDx=0;exitDy=0;exitPerimeter=0;" edge="1" parent="1" source="5dRny-T6z-p70ULrLOng-19" target="5dRny-T6z-p70ULrLOng-10">
          <mxGeometry relative="1" as="geometry" />
        </mxCell>
        <mxCell id="5dRny-T6z-p70ULrLOng-19" value="&lt;b&gt;Cloudfront&lt;/b&gt;" style="sketch=0;points=[[0,0,0],[0.25,0,0],[0.5,0,0],[0.75,0,0],[1,0,0],[0,1,0],[0.25,1,0],[0.5,1,0],[0.75,1,0],[1,1,0],[0,0.25,0],[0,0.5,0],[0,0.75,0],[1,0.25,0],[1,0.5,0],[1,0.75,0]];outlineConnect=0;fontColor=#232F3E;fillColor=#8C4FFF;strokeColor=#ffffff;dashed=0;verticalLabelPosition=bottom;verticalAlign=top;align=center;html=1;fontSize=12;fontStyle=0;aspect=fixed;shape=mxgraph.aws4.resourceIcon;resIcon=mxgraph.aws4.cloudfront;" vertex="1" parent="1">
          <mxGeometry x="218" y="200" width="78" height="78" as="geometry" />
        </mxCell>
        <mxCell id="5dRny-T6z-p70ULrLOng-22" style="edgeStyle=orthogonalEdgeStyle;rounded=0;orthogonalLoop=1;jettySize=auto;html=1;exitX=1;exitY=0.25;exitDx=0;exitDy=0;exitPerimeter=0;entryX=0;entryY=0.25;entryDx=0;entryDy=0;entryPerimeter=0;" edge="1" parent="1" source="5dRny-T6z-p70ULrLOng-2" target="5dRny-T6z-p70ULrLOng-3">
          <mxGeometry relative="1" as="geometry" />
        </mxCell>
        <mxCell id="5dRny-T6z-p70ULrLOng-23" style="edgeStyle=orthogonalEdgeStyle;rounded=0;orthogonalLoop=1;jettySize=auto;html=1;exitX=0;exitY=0.75;exitDx=0;exitDy=0;exitPerimeter=0;entryX=1;entryY=0.75;entryDx=0;entryDy=0;entryPerimeter=0;" edge="1" parent="1" source="5dRny-T6z-p70ULrLOng-3" target="5dRny-T6z-p70ULrLOng-2">
          <mxGeometry relative="1" as="geometry" />
        </mxCell>
        <mxCell id="5dRny-T6z-p70ULrLOng-49" value="&lt;b&gt;&lt;font style=&quot;font-size: 16px;&quot;&gt;database users&lt;/font&gt;&lt;/b&gt;" style="sketch=0;points=[[0,0,0],[0.25,0,0],[0.5,0,0],[0.75,0,0],[1,0,0],[0,1,0],[0.25,1,0],[0.5,1,0],[0.75,1,0],[1,1,0],[0,0.25,0],[0,0.5,0],[0,0.75,0],[1,0.25,0],[1,0.5,0],[1,0.75,0]];outlineConnect=0;fontColor=#232F3E;fillColor=#C925D1;strokeColor=#ffffff;dashed=0;verticalLabelPosition=bottom;verticalAlign=top;align=center;html=1;fontSize=12;fontStyle=0;aspect=fixed;shape=mxgraph.aws4.resourceIcon;resIcon=mxgraph.aws4.rds;" vertex="1" parent="1">
          <mxGeometry x="990" y="370" width="78" height="78" as="geometry" />
        </mxCell>
        <mxCell id="5dRny-T6z-p70ULrLOng-51" value="&lt;b&gt;&lt;font style=&quot;font-size: 16px;&quot;&gt;/users&lt;/font&gt;&lt;/b&gt;" style="aspect=fixed;sketch=0;html=1;dashed=0;whitespace=wrap;verticalLabelPosition=bottom;verticalAlign=top;fillColor=#2875E2;strokeColor=#ffffff;points=[[0.005,0.63,0],[0.1,0.2,0],[0.9,0.2,0],[0.5,0,0],[0.995,0.63,0],[0.72,0.99,0],[0.5,1,0],[0.28,0.99,0]];shape=mxgraph.kubernetes.icon2;kubernetesLabel=1;prIcon=api" vertex="1" parent="1">
          <mxGeometry x="820" y="290" width="83.33" height="80" as="geometry" />
        </mxCell>
        <mxCell id="5dRny-T6z-p70ULrLOng-53" value="&lt;b&gt;&lt;font style=&quot;font-size: 16px;&quot;&gt;/auth&lt;/font&gt;&lt;/b&gt;" style="aspect=fixed;sketch=0;html=1;dashed=0;whitespace=wrap;verticalLabelPosition=bottom;verticalAlign=top;fillColor=#2875E2;strokeColor=#ffffff;points=[[0.005,0.63,0],[0.1,0.2,0],[0.9,0.2,0],[0.5,0,0],[0.995,0.63,0],[0.72,0.99,0],[0.5,1,0],[0.28,0.99,0]];shape=mxgraph.kubernetes.icon2;kubernetesLabel=1;prIcon=api" vertex="1" parent="1">
          <mxGeometry x="820" y="438" width="83.33" height="80" as="geometry" />
        </mxCell>
        <mxCell id="5dRny-T6z-p70ULrLOng-54" style="edgeStyle=orthogonalEdgeStyle;rounded=0;orthogonalLoop=1;jettySize=auto;html=1;exitX=0.5;exitY=0;exitDx=0;exitDy=0;exitPerimeter=0;entryX=0.005;entryY=0.63;entryDx=0;entryDy=0;entryPerimeter=0;" edge="1" parent="1" source="5dRny-T6z-p70ULrLOng-3" target="5dRny-T6z-p70ULrLOng-51">
          <mxGeometry relative="1" as="geometry" />
        </mxCell>
        <mxCell id="5dRny-T6z-p70ULrLOng-55" style="edgeStyle=orthogonalEdgeStyle;rounded=0;orthogonalLoop=1;jettySize=auto;html=1;exitX=0.5;exitY=1;exitDx=0;exitDy=0;exitPerimeter=0;entryX=0.005;entryY=0.63;entryDx=0;entryDy=0;entryPerimeter=0;" edge="1" parent="1" source="5dRny-T6z-p70ULrLOng-3" target="5dRny-T6z-p70ULrLOng-53">
          <mxGeometry relative="1" as="geometry" />
        </mxCell>
        <mxCell id="5dRny-T6z-p70ULrLOng-59" style="edgeStyle=orthogonalEdgeStyle;rounded=0;orthogonalLoop=1;jettySize=auto;html=1;exitX=0.995;exitY=0.63;exitDx=0;exitDy=0;exitPerimeter=0;entryX=0.5;entryY=0;entryDx=0;entryDy=0;entryPerimeter=0;" edge="1" parent="1" source="5dRny-T6z-p70ULrLOng-51" target="5dRny-T6z-p70ULrLOng-49">
          <mxGeometry relative="1" as="geometry" />
        </mxCell>
        <mxCell id="5dRny-T6z-p70ULrLOng-60" style="edgeStyle=orthogonalEdgeStyle;rounded=0;orthogonalLoop=1;jettySize=auto;html=1;exitX=0.995;exitY=0.63;exitDx=0;exitDy=0;exitPerimeter=0;entryX=0.5;entryY=1;entryDx=0;entryDy=0;entryPerimeter=0;" edge="1" parent="1" source="5dRny-T6z-p70ULrLOng-53" target="5dRny-T6z-p70ULrLOng-49">
          <mxGeometry relative="1" as="geometry" />
        </mxCell>
      </root>
    </mxGraphModel>
  </diagram>
</mxfile>
